<mxfile host="app.diagrams.net" modified="2021-09-25T15:29:53.324Z" agent="5.0 (Macintosh; Intel Mac OS X 10_15_7) AppleWebKit/537.36 (KHTML, like Gecko) Chrome/93.0.4577.82 Safari/537.36" etag="tHnb_Tx11fXqsf-2Y1t7" version="15.2.9" type="github">
  <diagram id="uGlblgU5PZK9poFK3qCg" name="Page-1">
    <mxGraphModel dx="1614" dy="875" grid="1" gridSize="10" guides="1" tooltips="1" connect="1" arrows="1" fold="1" page="1" pageScale="1" pageWidth="827" pageHeight="1169" math="0" shadow="0">
      <root>
        <mxCell id="0" />
        <mxCell id="1" parent="0" />
        <mxCell id="zNwQcOaKy8ot98ip988L-4" style="rounded=0;orthogonalLoop=1;jettySize=auto;html=1;exitX=1;exitY=0.3333333333333333;exitDx=0;exitDy=0;exitPerimeter=0;" edge="1" parent="1" target="zNwQcOaKy8ot98ip988L-2">
          <mxGeometry relative="1" as="geometry">
            <mxPoint x="120" y="280" as="sourcePoint" />
          </mxGeometry>
        </mxCell>
        <mxCell id="zNwQcOaKy8ot98ip988L-2" value=":CanvasGUI" style="shape=umlLifeline;perimeter=lifelinePerimeter;whiteSpace=wrap;html=1;container=1;collapsible=0;recursiveResize=0;outlineConnect=0;" vertex="1" parent="1">
          <mxGeometry x="170" y="180" width="100" height="300" as="geometry" />
        </mxCell>
        <mxCell id="zNwQcOaKy8ot98ip988L-3" value="" style="html=1;points=[];perimeter=orthogonalPerimeter;" vertex="1" parent="zNwQcOaKy8ot98ip988L-2">
          <mxGeometry x="45" y="80" width="10" height="160" as="geometry" />
        </mxCell>
        <mxCell id="zNwQcOaKy8ot98ip988L-5" value="&amp;lt;&amp;lt;shape&amp;gt;&amp;gt;" style="text;html=1;align=center;verticalAlign=middle;resizable=0;points=[];autosize=1;strokeColor=none;fillColor=none;" vertex="1" parent="1">
          <mxGeometry x="110" y="280" width="80" height="20" as="geometry" />
        </mxCell>
        <mxCell id="zNwQcOaKy8ot98ip988L-6" value=":CanvasController" style="shape=umlLifeline;perimeter=lifelinePerimeter;whiteSpace=wrap;html=1;container=1;collapsible=0;recursiveResize=0;outlineConnect=0;" vertex="1" parent="1">
          <mxGeometry x="314" y="180" width="100" height="300" as="geometry" />
        </mxCell>
        <mxCell id="zNwQcOaKy8ot98ip988L-7" value="" style="html=1;points=[];perimeter=orthogonalPerimeter;" vertex="1" parent="zNwQcOaKy8ot98ip988L-6">
          <mxGeometry x="45" y="80" width="10" height="120" as="geometry" />
        </mxCell>
        <mxCell id="zNwQcOaKy8ot98ip988L-19" style="rounded=0;orthogonalLoop=1;jettySize=auto;html=1;exitX=1;exitY=0.3333333333333333;exitDx=0;exitDy=0;exitPerimeter=0;entryX=-0.1;entryY=0.917;entryDx=0;entryDy=0;entryPerimeter=0;startArrow=classic;startFill=1;endArrow=none;endFill=0;" edge="1" parent="zNwQcOaKy8ot98ip988L-6" target="zNwQcOaKy8ot98ip988L-7">
          <mxGeometry relative="1" as="geometry">
            <mxPoint x="-89" y="190" as="sourcePoint" />
            <mxPoint x="39" y="190" as="targetPoint" />
          </mxGeometry>
        </mxCell>
        <mxCell id="zNwQcOaKy8ot98ip988L-9" style="rounded=0;orthogonalLoop=1;jettySize=auto;html=1;exitX=1;exitY=0.3333333333333333;exitDx=0;exitDy=0;exitPerimeter=0;" edge="1" parent="1">
          <mxGeometry relative="1" as="geometry">
            <mxPoint x="230" y="280" as="sourcePoint" />
            <mxPoint x="358" y="280" as="targetPoint" />
          </mxGeometry>
        </mxCell>
        <mxCell id="zNwQcOaKy8ot98ip988L-10" value="change the shape &lt;br&gt;of cursor" style="text;html=1;align=center;verticalAlign=middle;resizable=0;points=[];autosize=1;strokeColor=none;fillColor=none;" vertex="1" parent="1">
          <mxGeometry x="240" y="285" width="110" height="30" as="geometry" />
        </mxCell>
        <mxCell id="zNwQcOaKy8ot98ip988L-11" value=":Application" style="shape=umlLifeline;perimeter=lifelinePerimeter;whiteSpace=wrap;html=1;container=1;collapsible=0;recursiveResize=0;outlineConnect=0;" vertex="1" parent="1">
          <mxGeometry x="460" y="180" width="100" height="300" as="geometry" />
        </mxCell>
        <mxCell id="zNwQcOaKy8ot98ip988L-12" value="" style="html=1;points=[];perimeter=orthogonalPerimeter;" vertex="1" parent="zNwQcOaKy8ot98ip988L-11">
          <mxGeometry x="45" y="80" width="10" height="50" as="geometry" />
        </mxCell>
        <mxCell id="zNwQcOaKy8ot98ip988L-17" style="rounded=0;orthogonalLoop=1;jettySize=auto;html=1;exitX=1.014;exitY=0.245;exitDx=0;exitDy=0;exitPerimeter=0;" edge="1" parent="zNwQcOaKy8ot98ip988L-11" target="zNwQcOaKy8ot98ip988L-14">
          <mxGeometry relative="1" as="geometry">
            <mxPoint x="-90.5399999999999" y="150.0499999999999" as="sourcePoint" />
            <mxPoint x="45.000000000000114" y="149.49999999999994" as="targetPoint" />
          </mxGeometry>
        </mxCell>
        <mxCell id="zNwQcOaKy8ot98ip988L-13" value=":Shape" style="shape=umlLifeline;perimeter=lifelinePerimeter;whiteSpace=wrap;html=1;container=1;collapsible=0;recursiveResize=0;outlineConnect=0;" vertex="1" parent="1">
          <mxGeometry x="600" y="180" width="100" height="300" as="geometry" />
        </mxCell>
        <mxCell id="zNwQcOaKy8ot98ip988L-14" value="" style="html=1;points=[];perimeter=orthogonalPerimeter;" vertex="1" parent="zNwQcOaKy8ot98ip988L-13">
          <mxGeometry x="45" y="120" width="10" height="40" as="geometry" />
        </mxCell>
        <mxCell id="zNwQcOaKy8ot98ip988L-15" style="rounded=0;orthogonalLoop=1;jettySize=auto;html=1;exitX=1.037;exitY=0.171;exitDx=0;exitDy=0;exitPerimeter=0;entryX=-0.032;entryY=0.381;entryDx=0;entryDy=0;entryPerimeter=0;" edge="1" parent="1" source="zNwQcOaKy8ot98ip988L-7" target="zNwQcOaKy8ot98ip988L-12">
          <mxGeometry relative="1" as="geometry">
            <mxPoint x="385" y="280" as="sourcePoint" />
            <mxPoint x="500" y="280" as="targetPoint" />
          </mxGeometry>
        </mxCell>
        <mxCell id="zNwQcOaKy8ot98ip988L-16" value="get the shape object" style="text;html=1;align=center;verticalAlign=middle;resizable=0;points=[];autosize=1;strokeColor=none;fillColor=none;" vertex="1" parent="1">
          <mxGeometry x="375" y="285" width="120" height="20" as="geometry" />
        </mxCell>
        <mxCell id="zNwQcOaKy8ot98ip988L-18" value="is existed" style="text;html=1;align=center;verticalAlign=middle;resizable=0;points=[];autosize=1;strokeColor=none;fillColor=none;" vertex="1" parent="1">
          <mxGeometry x="535" y="330" width="70" height="20" as="geometry" />
        </mxCell>
        <mxCell id="zNwQcOaKy8ot98ip988L-20" value="" style="shape=umlLifeline;participant=umlActor;perimeter=lifelinePerimeter;whiteSpace=wrap;html=1;container=1;collapsible=0;recursiveResize=0;verticalAlign=top;spacingTop=36;outlineConnect=0;" vertex="1" parent="1">
          <mxGeometry x="100" y="270" width="20" height="200" as="geometry" />
        </mxCell>
        <mxCell id="zNwQcOaKy8ot98ip988L-21" style="rounded=0;orthogonalLoop=1;jettySize=auto;html=1;entryX=-0.1;entryY=0.917;entryDx=0;entryDy=0;entryPerimeter=0;startArrow=classic;startFill=1;endArrow=none;endFill=0;" edge="1" parent="1">
          <mxGeometry relative="1" as="geometry">
            <mxPoint x="110" y="410" as="sourcePoint" />
            <mxPoint x="216.5" y="410.03999999999996" as="targetPoint" />
          </mxGeometry>
        </mxCell>
        <mxCell id="zNwQcOaKy8ot98ip988L-22" value="change the shape &lt;br&gt;of cursor" style="text;html=1;align=center;verticalAlign=middle;resizable=0;points=[];autosize=1;strokeColor=none;fillColor=none;" vertex="1" parent="1">
          <mxGeometry x="240" y="370" width="110" height="30" as="geometry" />
        </mxCell>
        <mxCell id="zNwQcOaKy8ot98ip988L-24" value="show the cursor" style="text;html=1;align=center;verticalAlign=middle;resizable=0;points=[];autosize=1;strokeColor=none;fillColor=none;" vertex="1" parent="1">
          <mxGeometry x="120" y="420" width="100" height="20" as="geometry" />
        </mxCell>
        <mxCell id="zNwQcOaKy8ot98ip988L-25" style="rounded=0;orthogonalLoop=1;jettySize=auto;html=1;exitX=1;exitY=0.3333333333333333;exitDx=0;exitDy=0;exitPerimeter=0;" edge="1" parent="1" target="zNwQcOaKy8ot98ip988L-26">
          <mxGeometry relative="1" as="geometry">
            <mxPoint x="120" y="650" as="sourcePoint" />
          </mxGeometry>
        </mxCell>
        <mxCell id="zNwQcOaKy8ot98ip988L-26" value=":CanvasGUI" style="shape=umlLifeline;perimeter=lifelinePerimeter;whiteSpace=wrap;html=1;container=1;collapsible=0;recursiveResize=0;outlineConnect=0;" vertex="1" parent="1">
          <mxGeometry x="170" y="550" width="100" height="300" as="geometry" />
        </mxCell>
        <mxCell id="zNwQcOaKy8ot98ip988L-27" value="" style="html=1;points=[];perimeter=orthogonalPerimeter;" vertex="1" parent="zNwQcOaKy8ot98ip988L-26">
          <mxGeometry x="45" y="80" width="10" height="160" as="geometry" />
        </mxCell>
        <mxCell id="zNwQcOaKy8ot98ip988L-28" value="&amp;lt;&amp;lt;location&amp;gt;&amp;gt;" style="text;html=1;align=center;verticalAlign=middle;resizable=0;points=[];autosize=1;strokeColor=none;fillColor=none;" vertex="1" parent="1">
          <mxGeometry x="110" y="650" width="80" height="20" as="geometry" />
        </mxCell>
        <mxCell id="zNwQcOaKy8ot98ip988L-29" value=":CanvasController" style="shape=umlLifeline;perimeter=lifelinePerimeter;whiteSpace=wrap;html=1;container=1;collapsible=0;recursiveResize=0;outlineConnect=0;" vertex="1" parent="1">
          <mxGeometry x="314" y="550" width="100" height="300" as="geometry" />
        </mxCell>
        <mxCell id="zNwQcOaKy8ot98ip988L-30" value="" style="html=1;points=[];perimeter=orthogonalPerimeter;" vertex="1" parent="zNwQcOaKy8ot98ip988L-29">
          <mxGeometry x="45" y="80" width="10" height="120" as="geometry" />
        </mxCell>
        <mxCell id="zNwQcOaKy8ot98ip988L-31" style="rounded=0;orthogonalLoop=1;jettySize=auto;html=1;exitX=1;exitY=0.3333333333333333;exitDx=0;exitDy=0;exitPerimeter=0;entryX=-0.1;entryY=0.917;entryDx=0;entryDy=0;entryPerimeter=0;startArrow=classic;startFill=1;endArrow=none;endFill=0;" edge="1" parent="zNwQcOaKy8ot98ip988L-29" target="zNwQcOaKy8ot98ip988L-30">
          <mxGeometry relative="1" as="geometry">
            <mxPoint x="-89" y="190" as="sourcePoint" />
            <mxPoint x="39" y="190" as="targetPoint" />
          </mxGeometry>
        </mxCell>
        <mxCell id="zNwQcOaKy8ot98ip988L-32" style="rounded=0;orthogonalLoop=1;jettySize=auto;html=1;exitX=1;exitY=0.3333333333333333;exitDx=0;exitDy=0;exitPerimeter=0;" edge="1" parent="1">
          <mxGeometry relative="1" as="geometry">
            <mxPoint x="230" y="650" as="sourcePoint" />
            <mxPoint x="358" y="650" as="targetPoint" />
          </mxGeometry>
        </mxCell>
        <mxCell id="zNwQcOaKy8ot98ip988L-33" value="draws the shape" style="text;html=1;align=center;verticalAlign=middle;resizable=0;points=[];autosize=1;strokeColor=none;fillColor=none;" vertex="1" parent="1">
          <mxGeometry x="240" y="650" width="100" height="20" as="geometry" />
        </mxCell>
        <mxCell id="zNwQcOaKy8ot98ip988L-34" value=":RenderingEngine" style="shape=umlLifeline;perimeter=lifelinePerimeter;whiteSpace=wrap;html=1;container=1;collapsible=0;recursiveResize=0;outlineConnect=0;" vertex="1" parent="1">
          <mxGeometry x="460" y="550" width="100" height="300" as="geometry" />
        </mxCell>
        <mxCell id="zNwQcOaKy8ot98ip988L-35" value="" style="html=1;points=[];perimeter=orthogonalPerimeter;" vertex="1" parent="zNwQcOaKy8ot98ip988L-34">
          <mxGeometry x="45" y="80" width="10" height="100" as="geometry" />
        </mxCell>
        <mxCell id="zNwQcOaKy8ot98ip988L-39" style="rounded=0;orthogonalLoop=1;jettySize=auto;html=1;exitX=1.037;exitY=0.171;exitDx=0;exitDy=0;exitPerimeter=0;entryX=0.1;entryY=0.22;entryDx=0;entryDy=0;entryPerimeter=0;" edge="1" parent="1" source="zNwQcOaKy8ot98ip988L-30" target="zNwQcOaKy8ot98ip988L-35">
          <mxGeometry relative="1" as="geometry">
            <mxPoint x="385" y="650" as="sourcePoint" />
            <mxPoint x="500" y="650" as="targetPoint" />
          </mxGeometry>
        </mxCell>
        <mxCell id="zNwQcOaKy8ot98ip988L-40" value="draws a new picture" style="text;html=1;align=center;verticalAlign=middle;resizable=0;points=[];autosize=1;strokeColor=none;fillColor=none;" vertex="1" parent="1">
          <mxGeometry x="375" y="655" width="120" height="20" as="geometry" />
        </mxCell>
        <mxCell id="zNwQcOaKy8ot98ip988L-42" value="" style="shape=umlLifeline;participant=umlActor;perimeter=lifelinePerimeter;whiteSpace=wrap;html=1;container=1;collapsible=0;recursiveResize=0;verticalAlign=top;spacingTop=36;outlineConnect=0;" vertex="1" parent="1">
          <mxGeometry x="100" y="640" width="20" height="200" as="geometry" />
        </mxCell>
        <mxCell id="zNwQcOaKy8ot98ip988L-43" style="rounded=0;orthogonalLoop=1;jettySize=auto;html=1;entryX=-0.1;entryY=0.917;entryDx=0;entryDy=0;entryPerimeter=0;startArrow=classic;startFill=1;endArrow=none;endFill=0;" edge="1" parent="1">
          <mxGeometry relative="1" as="geometry">
            <mxPoint x="110" y="780" as="sourcePoint" />
            <mxPoint x="216.5" y="780.04" as="targetPoint" />
          </mxGeometry>
        </mxCell>
        <mxCell id="zNwQcOaKy8ot98ip988L-44" value="returns" style="text;html=1;align=center;verticalAlign=middle;resizable=0;points=[];autosize=1;strokeColor=none;fillColor=none;" vertex="1" parent="1">
          <mxGeometry x="270" y="745" width="50" height="20" as="geometry" />
        </mxCell>
        <mxCell id="zNwQcOaKy8ot98ip988L-45" value="displays" style="text;html=1;align=center;verticalAlign=middle;resizable=0;points=[];autosize=1;strokeColor=none;fillColor=none;" vertex="1" parent="1">
          <mxGeometry x="140" y="790" width="60" height="20" as="geometry" />
        </mxCell>
        <mxCell id="zNwQcOaKy8ot98ip988L-46" style="rounded=0;orthogonalLoop=1;jettySize=auto;html=1;exitX=1;exitY=0.575;exitDx=0;exitDy=0;exitPerimeter=0;startArrow=classic;startFill=1;endArrow=none;endFill=0;entryX=-0.092;entryY=0.701;entryDx=0;entryDy=0;entryPerimeter=0;" edge="1" parent="1" source="zNwQcOaKy8ot98ip988L-30" target="zNwQcOaKy8ot98ip988L-35">
          <mxGeometry relative="1" as="geometry">
            <mxPoint x="235" y="750" as="sourcePoint" />
            <mxPoint x="500" y="699" as="targetPoint" />
          </mxGeometry>
        </mxCell>
        <mxCell id="zNwQcOaKy8ot98ip988L-47" value="returns" style="text;html=1;align=center;verticalAlign=middle;resizable=0;points=[];autosize=1;strokeColor=none;fillColor=none;" vertex="1" parent="1">
          <mxGeometry x="410" y="707" width="50" height="20" as="geometry" />
        </mxCell>
      </root>
    </mxGraphModel>
  </diagram>
</mxfile>
